<svg width="24" height="24" viewBox="0 0 24 24" fill="none" xmlns="http://www.w3.org/2000/svg">
<path fill-rule="evenodd" clip-rule="evenodd" d="M4.55814 11.3023C4.94345 11.3023 5.25581 11.6147 5.25581 12V20.6047H18.7442V12C18.7442 11.6147 19.0565 11.3023 19.4419 11.3023C19.8272 11.3023 20.1395 11.6147 20.1395 12V21.3023C20.1395 21.6876 19.8272 22 19.4419 22H4.55814C4.17282 22 3.86047 21.6876 3.86047 21.3023V12C3.86047 11.6147 4.17282 11.3023 4.55814 11.3023Z" fill="#2D2D2D"/>
<path fill-rule="evenodd" clip-rule="evenodd" d="M2 7.34884C2 6.96352 2.31236 6.65116 2.69767 6.65116H21.3023C21.6876 6.65116 22 6.96352 22 7.34884V12C22 12.3853 21.6876 12.6977 21.3023 12.6977H2.69767C2.31236 12.6977 2 12.3853 2 12V7.34884ZM3.39535 8.04651V11.3023H20.6047V8.04651H3.39535Z" fill="#2D2D2D"/>
<path fill-rule="evenodd" clip-rule="evenodd" d="M12 6.65116C12.3853 6.65116 12.6977 6.96352 12.6977 7.34884V21.3023C12.6977 21.6876 12.3853 22 12 22C11.6147 22 11.3023 21.6876 11.3023 21.3023V7.34884C11.3023 6.96352 11.6147 6.65116 12 6.65116Z" fill="#2D2D2D"/>
<path fill-rule="evenodd" clip-rule="evenodd" d="M7.81395 3.39535C7.38221 3.39535 6.96814 3.56686 6.66285 3.87215C6.35756 4.17744 6.18605 4.59151 6.18605 5.02326C6.18605 5.455 6.35756 5.86907 6.66285 6.17436C6.96814 6.47965 7.38221 6.65116 7.81395 6.65116H11.079C10.9503 6.27258 10.7664 5.81365 10.5166 5.35948C9.9179 4.27094 9.05388 3.39535 7.81395 3.39535ZM12 7.34884C12.6841 7.21201 12.6841 7.21177 12.684 7.21151L12.6836 7.20935L12.6827 7.20499L12.6798 7.19127C12.6774 7.17993 12.6741 7.16426 12.6697 7.14454C12.6609 7.1051 12.6479 7.04941 12.6305 6.97977C12.5957 6.84064 12.5428 6.64498 12.4689 6.41147C12.3218 5.94697 12.0875 5.32024 11.7392 4.68703C11.0588 3.44999 9.82984 2 7.81395 2C7.01214 2 6.24316 2.31852 5.67619 2.88549C5.10922 3.45246 4.7907 4.22144 4.7907 5.02326C4.7907 5.82507 5.10922 6.59405 5.67619 7.16102C6.24316 7.72799 7.01214 8.04651 7.81395 8.04651H12C12.209 8.04651 12.407 7.9528 12.5395 7.79115C12.6721 7.62951 12.725 7.41647 12.684 7.21151L12 7.34884Z" fill="#2D2D2D"/>
<path fill-rule="evenodd" clip-rule="evenodd" d="M12.2608 4.68703C12.9412 3.44999 14.1702 2 16.186 2C16.9879 2 17.7568 2.31852 18.3238 2.88549C18.8908 3.45246 19.2093 4.22144 19.2093 5.02326C19.2093 5.82507 18.8908 6.59405 18.3238 7.16102C17.7568 7.72799 16.9879 8.04651 16.186 8.04651H12C11.791 8.04651 11.593 7.9528 11.4605 7.79115C11.3279 7.62951 11.2749 7.41697 11.3159 7.21201L12 7.34884C11.3159 7.21201 11.3158 7.21227 11.3159 7.21201L11.3161 7.2109L11.3164 7.20935L11.3173 7.20499L11.3202 7.19127C11.3226 7.17993 11.3259 7.16426 11.3303 7.14454C11.3391 7.1051 11.3521 7.04941 11.3695 6.97977C11.4043 6.84064 11.4572 6.64498 11.5311 6.41147C11.6782 5.94697 11.9125 5.32024 12.2608 4.68703ZM12.921 6.65116H16.186C16.6178 6.65116 17.0319 6.47965 17.3372 6.17436C17.6424 5.86907 17.814 5.455 17.814 5.02326C17.814 4.59151 17.6424 4.17744 17.3372 3.87215C17.0319 3.56686 16.6178 3.39535 16.186 3.39535C14.9461 3.39535 14.0821 4.27094 13.4834 5.35948C13.2336 5.81365 13.0497 6.27258 12.921 6.65116Z" fill="#2D2D2D"/>
</svg>
