<svg width="16" height="16" viewBox="0 0 16 16" fill="none" xmlns="http://www.w3.org/2000/svg">
<path d="M12.0002 2.6665L12.0003 2.0015H12.0002V2.6665ZM13.3333 7.99951L12.6683 7.99932V7.99951H13.3333ZM14.6663 10.6665L15.3313 10.6665V10.6665H14.6663ZM12.0002 13.3335V13.9985H12.0003L12.0002 13.3335ZM1.33325 10.6665H0.668252V10.6665H1.33325ZM2.66626 7.99951H3.33126L3.33126 7.99932L2.66626 7.99951ZM1.54343 6.42398L1.76019 5.7953L1.54343 6.42398ZM1.5434 9.57503L1.76015 10.2037L1.5434 9.57503ZM14.4562 9.575L14.2393 10.2036L14.4562 9.575ZM14.4562 6.42402L14.2393 5.79539L14.4562 6.42402ZM12.0002 2.6665L12.0002 3.3315C13.1053 3.33164 14.0013 4.22788 14.0013 5.3335H14.6663H15.3313C15.3313 3.49381 13.8404 2.00172 12.0003 2.0015L12.0002 2.6665ZM14.6663 5.3335H14.0013V6.14878H14.6663H15.3313V5.3335H14.6663ZM14.4562 6.42402L14.2393 5.79539C13.3261 6.11044 12.6685 6.97722 12.6683 7.99932L13.3333 7.99951L13.9983 7.9997C13.9984 7.56213 14.2796 7.18843 14.6731 7.05266L14.4562 6.42402ZM13.3333 7.99951H12.6683C12.6683 9.02209 13.3263 9.88861 14.2393 10.2036L14.4562 9.575L14.6731 8.94636C14.2793 8.8105 13.9983 8.43692 13.9983 7.99951H13.3333ZM14.6663 9.85022H14.0013V10.6665H14.6663H15.3313V9.85022H14.6663ZM14.6663 10.6665L14.0013 10.6665C14.0013 11.7721 13.1053 12.6684 12.0002 12.6685L12.0002 13.3335L12.0003 13.9985C13.8404 13.9983 15.3313 12.5062 15.3313 10.6665L14.6663 10.6665ZM12.0002 13.3335V12.6685H4.00024V13.3335V13.9985H12.0002V13.3335ZM4.00024 13.3335V12.6685C2.89475 12.6685 1.99825 11.772 1.99825 10.6665H1.33325H0.668252C0.668252 12.5065 2.16022 13.9985 4.00024 13.9985V13.3335ZM1.33325 10.6665H1.99825V9.85028H1.33325H0.668252V10.6665H1.33325ZM1.5434 9.57503L1.76015 10.2037C2.67361 9.88879 3.33126 9.02206 3.33126 7.99951H2.66626H2.00126C2.00126 8.43723 1.72026 8.81065 1.32666 8.94635L1.5434 9.57503ZM2.66626 7.99951L3.33126 7.99932C3.33097 6.97725 2.67372 6.11027 1.76019 5.7953L1.54343 6.42398L1.32668 7.05267C1.72001 7.18828 2.00113 7.56182 2.00126 7.9997L2.66626 7.99951ZM1.33325 6.14871H1.99825V5.3335H1.33325H0.668252V6.14871H1.33325ZM1.33325 5.3335H1.99825C1.99825 4.22801 2.89475 3.3315 4.00024 3.3315V2.6665V2.0015C2.16022 2.0015 0.668252 3.49347 0.668252 5.3335H1.33325ZM4.00024 2.6665V3.3315H12.0002V2.6665V2.0015H4.00024V2.6665ZM1.54343 6.42398L1.76019 5.7953C1.85897 5.82936 1.99825 5.94273 1.99825 6.14871H1.33325H0.668252C0.668252 6.60836 0.988085 6.93593 1.32668 7.05267L1.54343 6.42398ZM1.33325 9.85028H1.99825C1.99825 10.0562 1.859 10.1696 1.76015 10.2037L1.5434 9.57503L1.32666 8.94635C0.988022 9.0631 0.668252 9.39069 0.668252 9.85028H1.33325ZM14.4562 9.575L14.2393 10.2036C14.1405 10.1695 14.0013 10.0561 14.0013 9.85022H14.6663H15.3313C15.3313 9.39074 15.0116 9.06317 14.6731 8.94636L14.4562 9.575ZM14.6663 6.14878H14.0013C14.0013 5.94285 14.1405 5.82947 14.2393 5.79539L14.4562 6.42402L14.6731 7.05266C15.0116 6.93586 15.3313 6.60831 15.3313 6.14878H14.6663Z" fill="#2D2D2D"/>
<circle cx="6.53223" cy="6.5324" r="0.527692" transform="rotate(45 6.53223 6.5324)" fill="#2D2D2D"/>
<circle cx="9.46753" cy="9.46746" r="0.527692" transform="rotate(45 9.46753 9.46746)" fill="#2D2D2D"/>
<path d="M6.50736 9.4924L9.49243 6.50732" stroke="#2D2D2D" stroke-linecap="round" stroke-linejoin="round"/>
</svg>
