<svg width="17" height="16" viewBox="0 0 17 16" fill="none" xmlns="http://www.w3.org/2000/svg">
<path d="M13.39 1.66217C13.2873 1.62796 13.2873 1.48302 13.39 1.44881L13.9925 1.2482C14.125 1.20404 14.2453 1.12964 14.344 1.0309C14.4427 0.932159 14.517 0.811789 14.5611 0.67933L14.7618 0.0771845C14.796 -0.025454 14.9409 -0.025454 14.9752 0.0771845L15.1758 0.679641C15.2199 0.812076 15.2944 0.932406 15.3931 1.03109C15.4919 1.12978 15.6122 1.20411 15.7447 1.24819L16.3469 1.44881C16.3694 1.45618 16.389 1.47047 16.4029 1.48963C16.4167 1.50878 16.4242 1.53183 16.4242 1.55549C16.4242 1.57914 16.4167 1.60219 16.4029 1.62135C16.389 1.64051 16.3694 1.65479 16.3469 1.66217L15.7444 1.86278C15.612 1.90691 15.4917 1.98126 15.393 2.07994C15.2943 2.17863 15.2199 2.29893 15.1758 2.43134L14.9752 3.03379C14.9678 3.05627 14.9535 3.07584 14.9343 3.08971C14.9152 3.10359 14.8921 3.11106 14.8685 3.11106C14.8448 3.11106 14.8217 3.10359 14.8026 3.08971C14.7834 3.07584 14.7691 3.05627 14.7618 3.03379L14.5611 2.43134C14.517 2.29893 14.4426 2.17863 14.3439 2.07994C14.2453 1.98126 14.1249 1.90691 13.9925 1.86278L13.39 1.66217ZM11.8039 2.86366C11.7904 2.8592 11.7787 2.85061 11.7704 2.83911C11.7621 2.82761 11.7576 2.81378 11.7576 2.79959C11.7576 2.7854 11.7621 2.77157 11.7704 2.76007C11.7787 2.74857 11.7904 2.73998 11.8039 2.73552L12.1653 2.61515C12.3265 2.56134 12.4528 2.43507 12.5066 2.27396L12.627 1.91255C12.6314 1.89908 12.64 1.88736 12.6515 1.87905C12.663 1.87074 12.6768 1.86627 12.691 1.86627C12.7052 1.86627 12.7191 1.87074 12.7306 1.87905C12.7421 1.88736 12.7507 1.89908 12.7551 1.91255L12.8755 2.27396C12.902 2.35342 12.9466 2.42562 13.0058 2.48484C13.0651 2.54406 13.1373 2.58868 13.2167 2.61515L13.5782 2.73552C13.5917 2.73998 13.6034 2.74857 13.6117 2.76007C13.62 2.77157 13.6245 2.7854 13.6245 2.79959C13.6245 2.81378 13.62 2.82761 13.6117 2.83911C13.6034 2.85061 13.5917 2.8592 13.5782 2.86366L13.2167 2.98403C13.1373 3.0105 13.0651 3.05512 13.0058 3.11434C12.9466 3.17356 12.902 3.24576 12.8755 3.32522L12.7551 3.68663C12.7507 3.7001 12.7421 3.71182 12.7306 3.72013C12.7191 3.72844 12.7052 3.73291 12.691 3.73291C12.6768 3.73291 12.663 3.72844 12.6515 3.72013C12.64 3.71182 12.6314 3.7001 12.627 3.68663L12.5066 3.32522C12.4801 3.24576 12.4355 3.17356 12.3763 3.11434C12.317 3.05512 12.2448 3.0105 12.1653 2.98403L11.8039 2.86366ZM11.4776 0.665023C11.4687 0.661952 11.4611 0.656199 11.4556 0.648562C11.4502 0.640926 11.4473 0.631786 11.4473 0.622412C11.4473 0.613039 11.4502 0.603899 11.4556 0.596262C11.4611 0.588626 11.4687 0.582872 11.4776 0.579802L11.7184 0.499557C11.826 0.463789 11.9103 0.379502 11.9461 0.271887L12.0263 0.0311532C12.0294 0.0222974 12.0351 0.0146174 12.0428 0.00918267C12.0504 0.00374768 12.0595 0.000827286 12.0689 0.000827285C12.0783 0.000827285 12.0874 0.00374767 12.0951 0.00918266C12.1027 0.0146174 12.1085 0.0222974 12.1115 0.0311532L12.1918 0.271887C12.2094 0.32492 12.2392 0.37311 12.2787 0.412631C12.3182 0.452152 12.3664 0.481915 12.4195 0.499557L12.6602 0.579802C12.6691 0.582872 12.6768 0.588626 12.6822 0.596262C12.6877 0.603899 12.6906 0.613039 12.6906 0.622412C12.6906 0.631786 12.6877 0.640926 12.6822 0.648562C12.6768 0.656199 12.6691 0.661952 12.6602 0.665023L12.4195 0.745267C12.3664 0.76291 12.3182 0.792672 12.2787 0.832193C12.2392 0.871714 12.2094 0.919904 12.1918 0.972938L12.1115 1.21336C12.1085 1.22222 12.1027 1.2299 12.0951 1.23533C12.0874 1.24077 12.0783 1.24369 12.0689 1.24369C12.0595 1.24369 12.0504 1.24077 12.0428 1.23533C12.0351 1.2299 12.0294 1.22222 12.0263 1.21336L11.9461 0.972627C11.9103 0.865012 11.826 0.780724 11.7184 0.744956L11.4776 0.665023Z" fill="white"/>
<path d="M14.4569 14.4026L11.1286 10.9614C11.9299 9.8585 12.3625 8.51603 12.361 7.13661C12.361 3.61317 9.58844 0.746582 6.18052 0.746582C2.7726 0.746582 0 3.61317 0 7.13661C0 10.6601 2.7726 13.5266 6.18052 13.5266C7.51471 13.5282 8.81317 13.0809 9.87992 12.2524L13.2082 15.6936C13.3767 15.8493 13.5965 15.9324 13.8224 15.9259C14.0483 15.9194 14.2632 15.8237 14.4229 15.6584C14.5827 15.4932 14.6753 15.271 14.6816 15.0375C14.6879 14.804 14.6076 14.5768 14.4569 14.4026ZM1.76586 7.13661C1.76586 6.23388 2.02478 5.35142 2.50987 4.60082C2.99496 3.85022 3.68443 3.2652 4.4911 2.91974C5.29778 2.57428 6.18542 2.48389 7.04178 2.66001C7.89814 2.83612 8.68476 3.27083 9.30216 3.90916C9.91956 4.54749 10.34 5.36077 10.5104 6.24616C10.6807 7.13155 10.5933 8.04928 10.2591 8.8833C9.925 9.71732 9.35916 10.4302 8.63317 10.9317C7.90719 11.4332 7.05366 11.7009 6.18052 11.7009C5.01011 11.6995 3.88804 11.2181 3.06044 10.3625C2.23283 9.5068 1.76727 8.3467 1.76586 7.13661Z" fill="white"/>
</svg>
