<svg width="27" height="26" viewBox="0 0 27 26" fill="none" xmlns="http://www.w3.org/2000/svg">
<path fill-rule="evenodd" clip-rule="evenodd" d="M13.3333 0C13.6874 0 14.0108 0.200067 14.1675 0.516089L17.7838 7.80845L25.8709 8.98504C26.2212 9.03601 26.5121 9.28045 26.6213 9.61565C26.7305 9.95084 26.6391 10.3187 26.3855 10.5645L20.5344 16.2371L21.9153 24.2509C21.9751 24.5983 21.8317 24.9494 21.5452 25.1565C21.2587 25.3637 20.8789 25.391 20.5655 25.2269L13.3333 21.4412L6.10121 25.2269C5.7878 25.391 5.40799 25.3637 5.1215 25.1565C4.83501 24.9494 4.69153 24.5983 4.75139 24.2509L6.13224 16.2371L0.281205 10.5645C0.0276075 10.3187 -0.0638088 9.95084 0.0453795 9.61565C0.154568 9.28045 0.445432 9.03601 0.79572 8.98504L8.88287 7.80845L12.4992 0.516089C12.6559 0.200067 12.9793 0 13.3333 0Z" fill="#FFA141"/>
</svg>
