<svg width="16" height="16" viewBox="0 0 16 16" fill="none" xmlns="http://www.w3.org/2000/svg">
<path d="M14.6667 5.91946C14.6221 4.89141 14.4972 4.22215 14.147 3.69272C13.9455 3.38814 13.6953 3.12322 13.4075 2.90995C12.6299 2.3335 11.5328 2.3335 9.33858 2.3335H6.66212C4.46793 2.3335 3.37084 2.3335 2.59316 2.90995C2.30544 3.12322 2.05519 3.38814 1.85373 3.69272C1.50359 4.22209 1.37859 4.89126 1.33397 5.91912C1.32634 6.09488 1.47773 6.22933 1.64362 6.22933C2.56747 6.22933 3.31641 7.02216 3.31641 8.00016C3.31641 8.97817 2.56747 9.771 1.64362 9.771C1.47773 9.771 1.32634 9.90545 1.33397 10.0812C1.37859 11.1091 1.50359 11.7782 1.85373 12.3076C2.05519 12.6122 2.30544 12.8771 2.59316 13.0904C3.37084 13.6668 4.46793 13.6668 6.66212 13.6668H9.33858C11.5328 13.6668 12.6299 13.6668 13.4075 13.0904C13.6953 12.8771 13.9455 12.6122 14.147 12.3076C14.4972 11.7782 14.6221 11.1089 14.6667 10.0809V5.91946Z" stroke="#2D2D2D" stroke-linejoin="round"/>
<path d="M8.66675 8L11.3334 8" stroke="#2D2D2D" stroke-linecap="round" stroke-linejoin="round"/>
<path d="M6 10.6665L11.3333 10.6665" stroke="#2D2D2D" stroke-linecap="round" stroke-linejoin="round"/>
</svg>
