<svg width="17" height="17" viewBox="0 0 17 17" fill="none" xmlns="http://www.w3.org/2000/svg">
<path d="M4.48058 6.02662L4.47215 5.41716C4.44413 3.39141 6.02713 1.73816 8.02122 1.71057C10.0153 1.68299 11.6434 3.29183 11.6715 5.31757L11.6799 5.92704M4.48058 6.02662C3.82064 6.03575 3.28828 6.59174 3.29755 7.26215L3.38186 13.3568C3.39113 14.0272 3.93867 14.5683 4.5986 14.5591L11.7979 14.4596C12.4579 14.4504 12.9902 13.8944 12.9809 13.224L12.8966 7.12937C12.8874 6.45896 12.3398 5.91791 11.6799 5.92704M4.48058 6.02662L11.6799 5.92704M8.14847 10.9097L8.12634 9.30985" stroke="#2D2D2D" stroke-linecap="round"/>
</svg>
