<svg width="26" height="26" viewBox="0 0 26 26" fill="none" xmlns="http://www.w3.org/2000/svg">
<g clip-path="url(#clip0_1594_19)">
<g filter="url(#filter0_d_1594_19)">
<path d="M8.5 24C8.31229 23.9999 8.12901 23.9386 7.97431 23.8242C7.81962 23.7097 7.70077 23.5474 7.63343 23.3588L6.30774 19.6482C6.28442 19.5829 6.2486 19.5235 6.2026 19.474C6.15661 19.4244 6.10147 19.3859 6.04074 19.3608L2.59477 17.9333C2.4197 17.8606 2.26917 17.7326 2.163 17.5661C2.05683 17.3995 2 17.2022 2 17.0002C2 16.7982 2.05683 16.6009 2.163 16.4343C2.26917 16.2678 2.4197 16.1397 2.59477 16.0671L6.04074 14.6396C6.10147 14.6145 6.15661 14.5759 6.2026 14.5264C6.2486 14.4769 6.28442 14.4175 6.30774 14.3521L7.62356 10.6679C7.68363 10.4936 7.78643 10.3402 7.92103 10.2239C8.05564 10.1075 8.21701 10.0327 8.38798 10.0072C8.59341 9.98047 8.80127 10.0283 8.97856 10.1433C9.15585 10.2582 9.29241 10.4336 9.36657 10.6416L10.6923 14.3521C10.7156 14.4175 10.7514 14.4769 10.7974 14.5264C10.8434 14.5759 10.8985 14.6145 10.9593 14.6396L14.4052 16.0671C14.5803 16.1397 14.7308 16.2678 14.837 16.4343C14.9432 16.6009 15 16.7982 15 17.0002C15 17.2022 14.9432 17.3995 14.837 17.5661C14.7308 17.7326 14.5803 17.8606 14.4052 17.9333L10.9593 19.3608C10.8985 19.3859 10.8434 19.4244 10.7974 19.474C10.7514 19.5235 10.7156 19.5829 10.6923 19.6482L9.36657 23.3588C9.29923 23.5474 9.18038 23.7097 9.02568 23.8242C8.87098 23.9386 8.6877 23.9999 8.5 24Z" fill="url(#paint0_linear_1594_19)"/>
</g>
<path d="M4.5 10C4.38209 9.99999 4.26695 9.95916 4.16976 9.88289C4.07256 9.80661 3.99786 9.69848 3.9555 9.57272L3.28492 7.57996C3.27038 7.53638 3.24795 7.4968 3.21909 7.46382C3.19024 7.43084 3.15561 7.40521 3.11747 7.3886L1.3738 6.62222C1.26377 6.5738 1.16917 6.48842 1.10244 6.37734C1.03572 6.26626 1 6.13468 1 5.99994C1 5.8652 1.03572 5.73362 1.10244 5.62253C1.16917 5.51145 1.26377 5.42608 1.3738 5.37765L3.11747 4.61128C3.15557 4.59459 3.19016 4.56893 3.21901 4.53596C3.24786 4.50299 3.27032 4.46345 3.28492 4.41991L3.94953 2.44488C3.98702 2.32861 4.05151 2.22621 4.1361 2.14868C4.22068 2.07116 4.32215 2.02144 4.4296 2.00487C4.55861 1.98695 4.68915 2.01876 4.80054 2.09526C4.91193 2.17175 4.99779 2.28856 5.0445 2.42715L5.71508 4.41991C5.72968 4.46345 5.75214 4.50299 5.78099 4.53596C5.80984 4.56893 5.84443 4.59459 5.88253 4.61128L7.6262 5.37765C7.73623 5.42608 7.83083 5.51145 7.89756 5.62253C7.96428 5.73362 8 5.8652 8 5.99994C8 6.13468 7.96428 6.26626 7.89756 6.37734C7.83083 6.48842 7.73623 6.5738 7.6262 6.62222L5.88253 7.3886C5.8444 7.40521 5.80976 7.43084 5.78091 7.46382C5.75205 7.4968 5.72962 7.53638 5.71508 7.57996L5.0445 9.57272C5.00214 9.69848 4.92744 9.80661 4.83025 9.88289C4.73305 9.95916 4.61791 9.99999 4.5 10Z" fill="url(#paint1_linear_1594_19)"/>
<path d="M17.001 3.5C17.3271 3.50003 17.6393 3.61172 17.8965 3.81055C18.1526 4.00858 18.3413 4.28244 18.4463 4.58984L20.1064 9.44629H20.1055C20.1185 9.48386 20.1383 9.51369 20.1582 9.53613C20.1776 9.5579 20.1969 9.57148 20.2139 9.5791L24.5059 11.4365H24.5049C24.8111 11.5656 25.0644 11.7927 25.2383 12.0762C25.4129 12.3609 25.5023 12.6938 25.5 13.0293V13.0322C25.4956 13.3526 25.406 13.6686 25.2373 13.9395C25.0682 14.2107 24.8243 14.4289 24.5303 14.5547L20.2158 16.4199C20.1987 16.4274 20.1789 16.4417 20.1592 16.4639C20.1391 16.4865 20.1205 16.5177 20.1074 16.5557L18.4463 21.4092L18.4473 21.4102C18.3429 21.7186 18.1536 21.9941 17.8965 22.1924C17.6398 22.3903 17.328 22.4998 17.0029 22.499H17.001L16.998 22.5V22.499C16.6733 22.4996 16.362 22.3901 16.1055 22.1924C15.8484 21.9941 15.6591 21.7186 15.5547 21.4102V21.4092L13.8955 16.5566C13.8825 16.5188 13.8638 16.4884 13.8438 16.4658C13.824 16.4436 13.8043 16.4294 13.7871 16.4219L9.46973 14.5537C9.17197 14.425 8.92602 14.2025 8.75684 13.9258C8.5878 13.6491 8.5 13.3265 8.5 13.001C8.5 12.6754 8.58781 12.3528 8.75684 12.0762C8.92602 11.7994 9.17197 11.5769 9.46973 11.4482L13.7852 9.58105L13.8125 9.56543C13.8223 9.55829 13.8327 9.54941 13.8428 9.53809C13.8629 9.51546 13.8815 9.48427 13.8945 9.44629L15.5557 4.58984C15.6607 4.28247 15.8494 4.00857 16.1055 3.81055C16.3627 3.61176 16.6749 3.5 17.001 3.5Z" fill="url(#paint2_linear_1594_19)" stroke="#161B22"/>
</g>
<defs>
<filter id="filter0_d_1594_19" x="-42" y="-18" width="101" height="102" filterUnits="userSpaceOnUse" color-interpolation-filters="sRGB">
<feFlood flood-opacity="0" result="BackgroundImageFix"/>
<feColorMatrix in="SourceAlpha" type="matrix" values="0 0 0 0 0 0 0 0 0 0 0 0 0 0 0 0 0 0 127 0" result="hardAlpha"/>
<feOffset dy="16"/>
<feGaussianBlur stdDeviation="22"/>
<feComposite in2="hardAlpha" operator="out"/>
<feColorMatrix type="matrix" values="0 0 0 0 0 0 0 0 0 0 0 0 0 0 0 0 0 0 1 0"/>
<feBlend mode="normal" in2="BackgroundImageFix" result="effect1_dropShadow_1594_19"/>
<feBlend mode="normal" in="SourceGraphic" in2="effect1_dropShadow_1594_19" result="shape"/>
</filter>
<linearGradient id="paint0_linear_1594_19" x1="8.5" y1="10" x2="8.5" y2="24" gradientUnits="userSpaceOnUse">
<stop offset="0.0104167" stop-color="#5271C4"/>
<stop offset="0.416667" stop-color="#5271C4"/>
<stop offset="1" stop-color="#ECA1FE"/>
</linearGradient>
<linearGradient id="paint1_linear_1594_19" x1="1" y1="10" x2="8.9292" y2="3.06195" gradientUnits="userSpaceOnUse">
<stop stop-color="#5562EC"/>
<stop offset="0.264423" stop-color="#23A1E5"/>
<stop offset="0.778846" stop-color="#07CFBF"/>
</linearGradient>
<linearGradient id="paint2_linear_1594_19" x1="9" y1="22" x2="26.8759" y2="6.11034" gradientUnits="userSpaceOnUse">
<stop stop-color="#5562EC"/>
<stop offset="0.475962" stop-color="#23A1E5"/>
<stop offset="0.927885" stop-color="#07CFBF"/>
</linearGradient>
<clipPath id="clip0_1594_19">
<rect width="26" height="26" fill="white"/>
</clipPath>
</defs>
</svg>
