<svg width="16" height="16" viewBox="0 0 16 16" fill="none" xmlns="http://www.w3.org/2000/svg">
<circle cx="8" cy="8" r="6.5625" stroke="#717171" stroke-width="0.875"/>
<path fill-rule="evenodd" clip-rule="evenodd" d="M6.86962 6.6628C6.86962 5.9947 7.38867 5.47675 8.0004 5.47675C8.61213 5.47675 9.13117 5.9947 9.13117 6.6628C9.13117 7.18587 8.81006 7.62153 8.37617 7.78189C7.99617 7.92234 7.51578 8.29394 7.51578 8.89536C7.51578 9.16508 7.73275 9.38373 8.0004 9.38373C8.26804 9.38373 8.48501 9.16508 8.48501 8.89536C8.48501 8.88517 8.48763 8.85987 8.52457 8.81842C8.56405 8.77412 8.62947 8.72864 8.7099 8.69892C9.52647 8.39712 10.1004 7.5946 10.1004 6.6628C10.1004 5.48138 9.17298 4.5 8.0004 4.5C6.82782 4.5 5.90039 5.48138 5.90039 6.6628C5.90039 6.93252 6.11736 7.15117 6.38501 7.15117C6.65265 7.15117 6.86962 6.93252 6.86962 6.6628ZM8.0004 11.5C8.35726 11.5 8.64655 11.2085 8.64655 10.8489C8.64655 10.4892 8.35726 10.1977 8.0004 10.1977C7.64353 10.1977 7.35424 10.4892 7.35424 10.8489C7.35424 11.2085 7.64353 11.5 8.0004 11.5Z" fill="#717171"/>
</svg>
