<svg width="44" height="44" viewBox="0 0 44 44" fill="none" xmlns="http://www.w3.org/2000/svg">
<path d="M2.89844 39.5997C2.89834 40.4282 3.56984 41.0998 4.39827 41.0999C5.2267 41.1 5.89834 40.4285 5.89844 39.6001L4.39844 39.5999L2.89844 39.5997ZM4.39918 32.9992L5.89918 32.9993L4.39918 32.9992ZM24.1984 27.8999C25.0269 27.8999 25.6984 27.2283 25.6984 26.3999C25.6984 25.5715 25.0269 24.8999 24.1984 24.8999V26.3999V27.8999ZM38.5378 32.9606C39.1236 33.5463 40.0733 33.5463 40.6591 32.9606C41.2449 32.3748 41.2449 31.425 40.6591 30.8392L39.5984 31.8999L38.5378 32.9606ZM33.6587 23.8389C33.073 23.2531 32.1232 23.2531 31.5374 23.8389C30.9516 24.4247 30.9516 25.3744 31.5374 25.9602L32.5981 24.8995L33.6587 23.8389ZM31.5376 30.8391C30.9518 31.4248 30.9518 32.3746 31.5376 32.9604C32.1234 33.5462 33.0731 33.5462 33.6589 32.9604L32.5983 31.8997L31.5376 30.8391ZM40.6593 25.96C41.2451 25.3742 41.2451 24.4245 40.6593 23.8387C40.0735 23.2529 39.1238 23.2529 38.538 23.8387L39.5986 24.8994L40.6593 25.96ZM26.3984 10.9999H24.8984C24.8984 13.8166 22.6151 16.0999 19.7984 16.0999V17.5999V19.0999C24.2719 19.0999 27.8984 15.4734 27.8984 10.9999H26.3984ZM19.7984 17.5999V16.0999C16.9818 16.0999 14.6984 13.8166 14.6984 10.9999H13.1984H11.6984C11.6984 15.4734 15.3249 19.0999 19.7984 19.0999V17.5999ZM13.1984 10.9999H14.6984C14.6984 8.18325 16.9818 5.8999 19.7984 5.8999V4.3999V2.8999C15.3249 2.8999 11.6984 6.5264 11.6984 10.9999H13.1984ZM19.7984 4.3999V5.8999C22.6151 5.8999 24.8984 8.18325 24.8984 10.9999H26.3984H27.8984C27.8984 6.52639 24.2719 2.8999 19.7984 2.8999V4.3999ZM4.39844 39.5999L5.89844 39.6001L5.89918 32.9993L4.39918 32.9992L2.89918 32.999L2.89844 39.5997L4.39844 39.5999ZM10.9992 26.3999V24.8999C6.52603 24.8999 2.89968 28.5258 2.89918 32.999L4.39918 32.9992L5.89918 32.9993C5.8995 30.1829 8.18275 27.8999 10.9992 27.8999V26.3999ZM10.9992 26.3999V27.8999H24.1984V26.3999V24.8999H10.9992V26.3999ZM39.5984 31.8999L40.6591 30.8392L37.1589 27.3391L36.0983 28.3997L35.0376 29.4604L38.5378 32.9606L39.5984 31.8999ZM36.0983 28.3997L37.1589 27.3391L33.6587 23.8389L32.5981 24.8995L31.5374 25.9602L35.0376 29.4604L36.0983 28.3997ZM32.5983 31.8997L33.6589 32.9604L37.1589 29.4604L36.0983 28.3997L35.0376 27.3391L31.5376 30.8391L32.5983 31.8997ZM36.0983 28.3997L37.1589 29.4604L40.6593 25.96L39.5986 24.8994L38.538 23.8387L35.0376 27.3391L36.0983 28.3997Z" fill="#00883E"/>
</svg>
