<svg width="16" height="16" viewBox="0 0 16 16" fill="none" xmlns="http://www.w3.org/2000/svg">
<path d="M13.1562 11.4062C13.1562 12.2865 12.4427 13 11.5625 13C10.6823 13 9.96875 12.2865 9.96875 11.4062C9.96875 10.526 10.6823 9.8125 11.5625 9.8125C12.4427 9.8125 13.1562 10.526 13.1562 11.4062Z" stroke="#80CA19" stroke-width="1.33"/>
<path d="M6.78125 11.4062C6.78125 12.2865 6.0677 13 5.1875 13C4.3073 13 3.59375 12.2865 3.59375 11.4062C3.59375 10.526 4.3073 9.8125 5.1875 9.8125C6.0677 9.8125 6.78125 10.526 6.78125 11.4062Z" stroke="#80CA19" stroke-width="1.33"/>
<path d="M9.96875 11.4061H6.78125M13.1562 11.4061H13.6428C13.783 11.4061 13.8531 11.4061 13.912 11.3987C14.3464 11.3446 14.6885 11.0024 14.7427 10.5681C14.75 10.5092 14.75 10.4391 14.75 10.2988V8.5373C14.75 6.24877 12.8948 4.39355 10.6062 4.39355M10.2875 10.1311V4.7123C10.2875 3.81074 10.2875 3.35996 10.0074 3.07988C9.72734 2.7998 9.27656 2.7998 8.375 2.7998H3.9125C3.01094 2.7998 2.56016 2.7998 2.28008 3.07988C2 3.35996 2 3.81074 2 4.7123V9.8123C2 10.4081 2 10.706 2.12811 10.9279C2.21204 11.0733 2.33276 11.194 2.47813 11.2779C2.70002 11.4061 2.99793 11.4061 3.59375 11.4061" stroke="#80CA19" stroke-width="1.33" stroke-linecap="round" stroke-linejoin="round"/>
<path d="M4.86865 4.7124V7.26225M7.41865 4.7124V7.26225" stroke="#80CA19" stroke-width="1.33" stroke-linecap="round" stroke-linejoin="round"/>
</svg>
