<svg width="20" height="20" viewBox="0 0 20 20" fill="none" xmlns="http://www.w3.org/2000/svg">
<g opacity="0.8">
<path d="M10 16.9938C9.484 16.5491 8.9008 16.0866 8.284 15.5945H8.276C6.10401 13.8687 3.64241 11.9159 2.55522 9.57599C2.19803 8.83104 2.00874 8.02054 2.00001 7.19875C1.99762 6.07114 2.46303 4.99019 3.29106 4.2002C4.11909 3.4102 5.23984 2.97786 6.40001 3.00087C7.34451 3.00232 8.26867 3.26758 9.0624 3.76504C9.41118 3.98502 9.72674 4.25111 10 4.55564C10.2748 4.2523 10.5904 3.98637 10.9384 3.76504C11.7318 3.26748 12.6557 3.00221 13.6 3.00087C14.7602 2.97786 15.8809 3.4102 16.7089 4.2002C17.537 4.99019 18.0024 6.07114 18 7.19875C17.9918 8.02185 17.8025 8.83374 17.4448 9.57987C16.3576 11.9198 13.8968 13.8718 11.7248 15.5945L11.7168 15.6007C11.0992 16.0897 10.5168 16.5522 10.0008 17L10 16.9938ZM6.40001 4.55564C5.65482 4.54658 4.93607 4.82372 4.40001 5.32681C3.88352 5.8198 3.59486 6.49525 3.59995 7.19875C3.60908 7.79772 3.74868 8.38803 4.00961 8.93076C4.52282 9.94035 5.2153 10.854 6.05521 11.6298C6.84801 12.4072 7.76 13.1597 8.5488 13.7925C8.7672 13.9674 8.9896 14.1439 9.212 14.3204L9.352 14.4315C9.5656 14.601 9.7864 14.7767 10 14.9493L10.0104 14.9399L10.0152 14.936H10.02L10.0272 14.9306H10.0312H10.0352L10.0496 14.9189L10.0824 14.8933L10.088 14.8886L10.0968 14.8824H10.1016L10.1088 14.8762L10.64 14.4525L10.7792 14.3413C11.004 14.1633 11.2264 13.9869 11.4448 13.812C12.2336 13.1792 13.1464 12.4274 13.9392 11.6462C14.7792 10.8708 15.4717 9.9573 15.9848 8.94786C16.2504 8.40043 16.392 7.80394 16.4 7.19875C16.4033 6.49742 16.1148 5.82456 15.6 5.33303C15.065 4.82766 14.3461 4.54824 13.6 4.55564C12.6895 4.54812 11.8191 4.91897 11.208 5.57479L10 6.92744L8.792 5.57479C8.18085 4.91897 7.31047 4.54812 6.40001 4.55564Z" fill="#999999"/>
</g>
</svg>
