<svg width="16" height="16" viewBox="0 0 16 16" fill="none" xmlns="http://www.w3.org/2000/svg">
<path d="M13.0001 11.6667C13.0001 12.5871 12.2539 13.3333 11.3334 13.3333C10.4129 13.3333 9.66675 12.5871 9.66675 11.6667C9.66675 10.7462 10.4129 10 11.3334 10C12.2539 10 13.0001 10.7462 13.0001 11.6667Z" stroke="#2D2D2D"/>
<path d="M6.33333 11.6667C6.33333 12.5871 5.58714 13.3333 4.66667 13.3333C3.74619 13.3333 3 12.5871 3 11.6667C3 10.7462 3.74619 10 4.66667 10C5.58714 10 6.33333 10.7462 6.33333 11.6667Z" stroke="#2D2D2D"/>
<path d="M9.66658 11.6665H6.33325M12.9999 11.6665H13.5087C13.6553 11.6665 13.7287 11.6665 13.7903 11.6588C14.2445 11.6022 14.6023 11.2444 14.6589 10.7902C14.6666 10.7286 14.6666 10.6553 14.6666 10.5086V8.6665C14.6666 6.27327 12.7265 4.33317 10.3333 4.33317M1.33325 2.6665H7.99992C8.94273 2.6665 9.41413 2.6665 9.70703 2.9594C9.99992 3.25229 9.99992 3.72369 9.99992 4.6665V10.3332M1.33325 8.49984V9.99984C1.33325 10.6229 1.33325 10.9345 1.46723 11.1665C1.55499 11.3185 1.68123 11.4448 1.83325 11.5325C2.0653 11.6665 2.37684 11.6665 2.99992 11.6665" stroke="#2D2D2D" stroke-linecap="round" stroke-linejoin="round"/>
<path d="M1.33325 4.6665H5.33325M1.33325 6.6665H3.99992" stroke="#2D2D2D" stroke-linecap="round" stroke-linejoin="round"/>
</svg>
