<svg width="24" height="24" viewBox="0 0 24 24" fill="none" xmlns="http://www.w3.org/2000/svg">
<path fill-rule="evenodd" clip-rule="evenodd" d="M11.9868 4.21258C12.2702 3.92914 12.7298 3.92914 13.0132 4.21258L19.7874 10.9868C20.0709 11.2702 20.0709 11.7298 19.7874 12.0132C19.504 12.2967 19.0444 12.2967 18.761 12.0132L12.5 5.75225L6.23903 12.0132C5.95558 12.2967 5.49603 12.2967 5.21258 12.0132C4.92914 11.7298 4.92914 11.2702 5.21258 10.9868L11.9868 4.21258Z" fill="#2D2D2D"/>
<path fill-rule="evenodd" clip-rule="evenodd" d="M12.5 4C12.9009 4 13.2258 4.32495 13.2258 4.72581V18.2742C13.2258 18.675 12.9009 19 12.5 19C12.0991 19 11.7742 18.675 11.7742 18.2742V4.72581C11.7742 4.32495 12.0991 4 12.5 4Z" fill="#2D2D2D"/>
</svg>
