<svg width="13" height="16" viewBox="0 0 13 16" fill="none" xmlns="http://www.w3.org/2000/svg">
<path d="M10.3148 5.1442L9.62727 4.72236C8.93793 4.29938 8.59326 4.08789 8.2124 4.08789C7.83155 4.08789 7.48688 4.29938 6.79754 4.72236L6.11004 5.1442C5.45792 5.54434 5.13185 5.74442 4.95338 6.06678C4.7749 6.38914 4.7749 6.77801 4.7749 7.55575V11.5881C4.7749 12.9138 4.7749 13.5767 5.17763 13.9885C5.58036 14.4004 6.22854 14.4004 7.5249 14.4004H8.8999C10.1963 14.4004 10.8444 14.4004 11.2472 13.9885C11.6499 13.5767 11.6499 12.9138 11.6499 11.5881V7.55575C11.6499 6.77801 11.6499 6.38914 11.4714 6.06678C11.293 5.74442 10.9669 5.54434 10.3148 5.1442Z" stroke="#2D2D2D" stroke-width="1.3" stroke-linecap="round" stroke-linejoin="round"/>
<path d="M7.5249 4.1622C7.0857 3.74077 6.82303 3.51923 6.49185 3.43599C6.10685 3.33922 5.7024 3.44774 4.8935 3.6648L4.08677 3.88128C3.32154 4.08661 2.93893 4.18928 2.67312 4.44285C2.40732 4.69641 2.30432 5.057 2.09832 5.77816L1.03027 9.51717C0.679124 10.7465 0.50355 11.3611 0.801584 11.8453C1.05783 12.2617 2.08231 12.7737 3.05615 13.0254" stroke="#2D2D2D" stroke-width="1.3" stroke-linecap="round" stroke-linejoin="round"/>
<path d="M7.86503 6.15039C8.44337 5.76579 8.95681 5.14864 9.27582 4.38113C9.93444 2.7965 9.51484 1.17099 8.33861 0.750447C7.16238 0.329901 5.67494 1.27357 5.01632 2.85819C4.90621 3.1231 4.82624 3.38915 4.7749 3.65053" stroke="#2D2D2D" stroke-width="1.3" stroke-linecap="round"/>
</svg>
