<svg width="20" height="20" viewBox="0 0 20 20" fill="none" xmlns="http://www.w3.org/2000/svg">
<path fill-rule="evenodd" clip-rule="evenodd" d="M5.99457 14.0062C5.78046 13.7921 5.78046 13.445 5.99457 13.2309L13.2314 5.99408C13.4455 5.77997 13.7926 5.77997 14.0067 5.99408C14.2208 6.20819 14.2208 6.55534 14.0067 6.76945L6.76994 14.0062C6.55583 14.2204 6.20868 14.2204 5.99457 14.0062Z" fill="white"/>
<path fill-rule="evenodd" clip-rule="evenodd" d="M5.99457 5.99408C6.20868 5.77997 6.55583 5.77997 6.76994 5.99408L14.0067 13.2309C14.2208 13.445 14.2208 13.7921 14.0067 14.0062C13.7926 14.2204 13.4455 14.2204 13.2314 14.0062L5.99457 6.76945C5.78046 6.55534 5.78046 6.20819 5.99457 5.99408Z" fill="white"/>
</svg>
