<svg width="16" height="16" viewBox="0 0 16 16" fill="none" xmlns="http://www.w3.org/2000/svg">
<path d="M2 6.6665V9.99984C2 11.8854 2 12.8282 2.58579 13.414C3.17157 13.9998 4.11438 13.9998 6 13.9998H8" stroke="#2D2D2D" stroke-linecap="round"/>
<path d="M4.66675 11.3335H7.33341" stroke="#2D2D2D" stroke-linecap="round"/>
<path d="M12.3333 9C13.622 9 14.6667 10.0251 14.6667 11.2895C14.6667 12.7199 13.2562 13.4231 12.5833 14.4953C12.4399 14.7238 12.2371 14.7238 12.0833 14.4953C11.3895 13.4638 10 12.6901 10 11.2895C10 10.0251 11.0447 9 12.3333 9Z" stroke="#2D2D2D" stroke-linejoin="round"/>
<path d="M12.3333 11.3335H12.3393" stroke="#2D2D2D" stroke-width="1.33333" stroke-linecap="round" stroke-linejoin="round"/>
<path d="M6.75803 5.2807C6.57001 5.96046 5.88632 7.13304 4.58732 7.30298C3.44035 7.45303 2.57044 6.95177 2.34824 6.74218C2.10325 6.57224 1.54491 6.02843 1.40817 5.68855C1.27143 5.34867 1.43096 4.61227 1.54491 4.31204L2.00042 2.99151C2.11162 2.65983 2.37193 1.87534 2.63881 1.61C2.90569 1.34466 3.44601 1.33311 3.6684 1.33311H8.33875C9.5409 1.35012 12.1694 1.32238 12.689 1.33311C13.2086 1.34385 13.5208 1.77994 13.612 1.96687C14.3873 3.84704 14.6888 4.92382 14.6888 5.38266C14.5876 5.87213 14.1688 6.79508 12.689 7.20102C11.151 7.62292 10.2791 6.80231 10.0055 6.48727M6.12562 6.48727C6.34212 6.75351 7.02125 7.28939 8.00576 7.30298C8.99027 7.31658 9.84032 6.62889 10.1423 6.28334C10.2277 6.18138 10.4123 5.87889 10.6038 5.2807" stroke="#2D2D2D" stroke-linecap="round" stroke-linejoin="round"/>
</svg>
