<svg width="34" height="34" viewBox="0 0 34 34" fill="none" xmlns="http://www.w3.org/2000/svg">
<path d="M12.75 11.2627H21.25C23.2535 11.2627 24.2552 11.2627 24.8776 11.885C25.5 12.5074 25.5 13.5092 25.5 15.5127V19.7627C25.5 23.2687 25.5 25.0218 24.4108 26.111C23.3216 27.2002 21.5686 27.2002 18.0625 27.2002H15.9375C12.4314 27.2002 10.6784 27.2002 9.5892 26.111C8.5 25.0218 8.5 23.2687 8.5 19.7627V15.5127C8.5 13.5092 8.5 12.5074 9.1224 11.885C9.7448 11.2627 10.7465 11.2627 12.75 11.2627Z" stroke="white" stroke-width="2" stroke-linecap="round" stroke-linejoin="round"/>
<path d="M21.25 13.9185C21.25 9.81084 19.3472 5.94971 17 5.94971C14.6528 5.94971 12.75 9.81084 12.75 13.9185" stroke="white" stroke-width="2" stroke-linecap="round" stroke-linejoin="round"/>
</svg>
