<svg width="17" height="15" viewBox="0 0 17 15" fill="none" xmlns="http://www.w3.org/2000/svg">
<path d="M4.17155 0.639659C4.37836 -0.213219 5.59134 -0.21322 5.79815 0.639658L6.36721 2.98641C6.44104 3.29091 6.67879 3.52866 6.98329 3.60249L9.33004 4.17155C10.1829 4.37836 10.1829 5.59134 9.33004 5.79815L6.98329 6.3672C6.67879 6.44104 6.44104 6.67879 6.36721 6.98329L5.79815 9.33004C5.59134 10.1829 4.37836 10.1829 4.17155 9.33004L3.6025 6.98329C3.52866 6.67879 3.29091 6.44104 2.98641 6.36721L0.639659 5.79815C-0.213219 5.59134 -0.21322 4.37836 0.639658 4.17155L2.98641 3.6025C3.29091 3.52866 3.52866 3.29091 3.60249 2.98641L4.17155 0.639659Z" fill="white"/>
<path d="M11.003 8.82954C11.1303 8.30469 11.8767 8.30469 12.004 8.82954L12.3542 10.2737C12.3996 10.4611 12.5459 10.6074 12.7333 10.6528L14.1775 11.003C14.7023 11.1303 14.7023 11.8767 14.1775 12.004L12.7333 12.3542C12.5459 12.3996 12.3996 12.5459 12.3542 12.7333L12.004 14.1775C11.8767 14.7023 11.1303 14.7023 11.003 14.1775L10.6528 12.7333C10.6074 12.5459 10.4611 12.3996 10.2737 12.3542L8.82954 12.004C8.30469 11.8767 8.30469 11.1303 8.82954 11.003L10.2737 10.6528C10.4611 10.6074 10.6074 10.4611 10.6528 10.2737L11.003 8.82954Z" fill="white"/>
<path d="M13.4758 0.545911C13.5593 0.20148 14.0491 0.20148 14.1327 0.545911L14.3625 1.49364C14.3923 1.61661 14.4883 1.71262 14.6113 1.74244L15.559 1.97225C15.9034 2.05577 15.9034 2.54563 15.559 2.62915L14.6113 2.85896C14.4883 2.88878 14.3923 2.98479 14.3625 3.10776L14.1327 4.05549C14.0491 4.39992 13.5593 4.39992 13.4758 4.05549L13.2459 3.10776C13.2161 2.98479 13.1201 2.88878 12.9971 2.85896L12.0494 2.62915C11.705 2.54563 11.705 2.05577 12.0494 1.97225L12.9971 1.74244C13.1201 1.71262 13.2161 1.61661 13.2459 1.49364L13.4758 0.545911Z" fill="white"/>
<path fill-rule="evenodd" clip-rule="evenodd" d="M13.8042 0.714056L13.6166 1.48757C13.5417 1.79676 13.3003 2.03816 12.9911 2.11313L12.2176 2.3007L12.9911 2.48827C13.3003 2.56324 13.5417 2.80465 13.6166 3.11383L13.8042 3.88735L13.9918 3.11383C14.0667 2.80465 14.3081 2.56324 14.6173 2.48827L15.3908 2.3007L14.6173 2.11313C14.3081 2.03816 14.0667 1.79675 13.9918 1.48757L13.8042 0.714056ZM14.1796 0.295227C14.0841 -0.0984091 13.5243 -0.0984087 13.4288 0.295227L13.1662 1.37834C13.1321 1.51888 13.0224 1.62861 12.8818 1.66269L11.7987 1.92533C11.4051 2.02078 11.4051 2.58062 11.7987 2.67607L12.8818 2.93871C13.0224 2.97279 13.1321 3.08252 13.1662 3.22306L13.4288 4.30617C13.5243 4.69981 14.0841 4.69981 14.1796 4.30617L14.4422 3.22306C14.4763 3.08252 14.586 2.97279 14.7266 2.93871L15.8097 2.67607C16.2033 2.58062 16.2033 2.02078 15.8097 1.92533L14.7266 1.66269C14.586 1.62861 14.4763 1.51888 14.4422 1.37834L14.1796 0.295227Z" fill="white"/>
</svg>
