<svg width="20" height="20" viewBox="0 0 20 20" fill="none" xmlns="http://www.w3.org/2000/svg">
<path fill-rule="evenodd" clip-rule="evenodd" d="M2.29107 4.11657C2.69086 3.71679 3.23309 3.49219 3.79847 3.49219H16.2016C16.767 3.49219 17.3092 3.71679 17.709 4.11657C18.1088 4.51636 18.3334 5.05859 18.3334 5.62397V7.17436C18.3334 7.49545 18.0731 7.75575 17.752 7.75575C17.2894 7.75575 16.8457 7.93951 16.5186 8.26661C16.1915 8.59371 16.0078 9.03735 16.0078 9.49994C16.0078 9.96253 16.1915 10.4062 16.5186 10.7333C16.8457 11.0604 17.2894 11.2441 17.752 11.2441C18.0731 11.2441 18.3334 11.5044 18.3334 11.8255V13.3759C18.3334 13.9413 18.1088 14.4835 17.709 14.8833C17.3092 15.2831 16.767 15.5077 16.2016 15.5077H3.79847C3.23309 15.5077 2.69086 15.2831 2.29107 14.8833C1.89128 14.4835 1.66669 13.9413 1.66669 13.3759V11.8255C1.66669 11.5044 1.92699 11.2441 2.24808 11.2441C2.71067 11.2441 3.15431 11.0604 3.48141 10.7333C3.80851 10.4062 3.99227 9.96253 3.99227 9.49994C3.99227 9.03735 3.80851 8.59371 3.48141 8.26661C3.15431 7.93951 2.71067 7.75575 2.24808 7.75575C1.92699 7.75575 1.66669 7.49545 1.66669 7.17436V5.62397C1.66669 5.05859 1.89128 4.51636 2.29107 4.11657ZM3.79847 4.65498C3.54148 4.65498 3.29501 4.75707 3.11329 4.93879C2.93157 5.12051 2.82948 5.36698 2.82948 5.62397V6.65168C3.38381 6.76484 3.89759 7.03836 4.30362 7.4444C4.84879 7.98956 5.15506 8.72896 5.15506 9.49994C5.15506 10.2709 4.84879 11.0103 4.30362 11.5555C3.89759 11.9615 3.38381 12.235 2.82948 12.3482V13.3759C2.82948 13.6329 2.93157 13.8794 3.11329 14.0611C3.29501 14.2428 3.54148 14.3449 3.79847 14.3449H16.2016C16.4586 14.3449 16.705 14.2428 16.8867 14.0611C17.0685 13.8794 17.1706 13.6329 17.1706 13.3759V12.3482C16.6162 12.235 16.1024 11.9615 15.6964 11.5555C15.1512 11.0103 14.845 10.2709 14.845 9.49994C14.845 8.72896 15.1512 7.98956 15.6964 7.4444C16.1024 7.03836 16.6162 6.76484 17.1706 6.65168V5.62397C17.1706 5.36698 17.0685 5.12051 16.8867 4.93879C16.705 4.75707 16.4586 4.65498 16.2016 4.65498H3.79847Z" fill="#1A1A1A"/>
<path fill-rule="evenodd" clip-rule="evenodd" d="M10.7752 3.49219C11.0963 3.49219 11.3566 3.75249 11.3566 4.07358V5.62397C11.3566 5.94507 11.0963 6.20537 10.7752 6.20537C10.4541 6.20537 10.1938 5.94507 10.1938 5.62397V4.07358C10.1938 3.75249 10.4541 3.49219 10.7752 3.49219Z" fill="#1A1A1A"/>
<path fill-rule="evenodd" clip-rule="evenodd" d="M10.7752 12.7945C11.0963 12.7945 11.3566 13.0548 11.3566 13.3759V14.9263C11.3566 15.2474 11.0963 15.5077 10.7752 15.5077C10.4541 15.5077 10.1938 15.2474 10.1938 14.9263V13.3759C10.1938 13.0548 10.4541 12.7945 10.7752 12.7945Z" fill="#1A1A1A"/>
<path fill-rule="evenodd" clip-rule="evenodd" d="M10.7752 8.14335C11.0963 8.14335 11.3566 8.40365 11.3566 8.72474V10.2751C11.3566 10.5962 11.0963 10.8565 10.7752 10.8565C10.4541 10.8565 10.1938 10.5962 10.1938 10.2751V8.72474C10.1938 8.40365 10.4541 8.14335 10.7752 8.14335Z" fill="#1A1A1A"/>
</svg>
