<svg width="27" height="26" viewBox="0 0 27 26" fill="none" xmlns="http://www.w3.org/2000/svg">
<path fill-rule="evenodd" clip-rule="evenodd" d="M13.3333 0C13.6874 0 14.0108 0.200997 14.1675 0.518488L17.7838 7.84476L25.8709 9.02682C26.2212 9.07802 26.5121 9.3236 26.6213 9.66035C26.7305 9.9971 26.6391 10.3666 26.3855 10.6136L20.5344 16.3126L21.9153 24.3636C21.9751 24.7126 21.8317 25.0654 21.5452 25.2735C21.2587 25.4816 20.8789 25.509 20.5655 25.3442L13.3333 21.5409L6.10121 25.3442C5.7878 25.509 5.408 25.4816 5.1215 25.2735C4.83501 25.0654 4.69153 24.7126 4.75139 24.3636L6.13224 16.3126L0.281205 10.6136C0.0276075 10.3666 -0.0638088 9.9971 0.0453795 9.66035C0.154568 9.3236 0.445432 9.07802 0.79572 9.02682L8.88287 7.84476L12.4992 0.518488C12.6559 0.200997 12.9793 0 13.3333 0ZM13.3333 3.03186L10.3349 9.1063C10.1995 9.38058 9.93797 9.57077 9.63532 9.61501L2.92878 10.5953L7.78085 15.3212C8.00027 15.5349 8.10042 15.8429 8.04864 16.1448L6.90375 22.8201L12.9004 19.6666C13.1714 19.524 13.4953 19.524 13.7663 19.6666L19.7629 22.8201L18.618 16.1448C18.5663 15.8429 18.6664 15.5349 18.8858 15.3212L23.7379 10.5953L17.0313 9.61501C16.7287 9.57077 16.4671 9.38058 16.3317 9.1063L13.3333 3.03186Z" fill="#FFA141"/>
</svg>
