<svg width="14" height="14" viewBox="0 0 14 14" fill="none" xmlns="http://www.w3.org/2000/svg">
<path d="M9.65005 3.42571C9.97609 3.15953 10.4471 3.15953 10.7731 3.42571L10.8405 3.48625L10.901 3.55364C11.1671 3.87967 11.1672 4.35068 10.901 4.67668L10.8405 4.74407L8.42153 7.16301L10.8405 9.58196L10.901 9.64934C11.1672 9.97538 11.1672 10.4473 10.901 10.7734L10.8405 10.8407C10.5149 11.1661 9.99918 11.1861 9.65005 10.9013L9.58266 10.8407L7.16372 8.4218L4.7438 10.8407C4.4182 11.166 3.90245 11.1862 3.55337 10.9013L3.48599 10.8407C3.13879 10.4935 3.13879 9.92915 3.48599 9.58196L5.90493 7.16301L3.48599 4.74407C3.13886 4.39693 3.13898 3.83346 3.48599 3.48625L3.55337 3.42571C3.8794 3.15953 4.35038 3.15954 4.67641 3.42571L4.7438 3.48625L7.16372 5.9052L9.58266 3.48625L9.65005 3.42571Z" fill="#555555"/>
</svg>
