<svg width="16" height="16" viewBox="0 0 16 16" fill="none" xmlns="http://www.w3.org/2000/svg">
<path fill-rule="evenodd" clip-rule="evenodd" d="M3.84042 12.4926C3.60918 12.2613 3.60918 11.8864 3.84042 11.6552L11.6562 3.83945C11.8874 3.60821 12.2623 3.60821 12.4936 3.83945C12.7248 4.07069 12.7248 4.44561 12.4936 4.67685L4.67782 12.4926C4.44658 12.7238 4.07167 12.7238 3.84042 12.4926Z" fill="#333333"/>
<path fill-rule="evenodd" clip-rule="evenodd" d="M3.84042 3.83945C4.07167 3.60821 4.44658 3.60821 4.67782 3.83945L12.4936 11.6552C12.7248 11.8864 12.7248 12.2613 12.4936 12.4926C12.2623 12.7238 11.8874 12.7238 11.6562 12.4926L3.84042 4.67685C3.60918 4.44561 3.60918 4.07069 3.84042 3.83945Z" fill="#333333"/>
</svg>
