<svg width="211" height="30" viewBox="0 0 211 30" fill="none" xmlns="http://www.w3.org/2000/svg">
<path d="M6.65687 27.11C2.1868 27.11 0.0080397 25.1644 0.0080397 21.1607V20.7104H4.57459V21.1607C4.57459 22.3907 5.31424 23.0661 6.64883 23.0661H8.39344C9.73607 23.0661 10.4677 22.3907 10.4677 21.1607V20.3728C10.4677 19.1427 9.72803 18.4674 8.39344 18.4674H6.64883C2.17876 18.4674 0 16.5218 0 12.518V11.7301C0 7.72634 2.17072 5.78073 6.64883 5.78073H8.39344C12.8635 5.78073 15.0423 7.72634 15.0423 11.7301V12.1803H10.4757V11.7301C10.4757 10.5 9.73607 9.8247 8.40148 9.8247H6.65687C5.31424 9.8247 4.58263 10.5 4.58263 11.7301V12.518C4.58263 13.7481 5.32228 14.4234 6.65687 14.4234H8.40148C12.8716 14.4234 15.0503 16.369 15.0503 20.3728V21.1607C15.0503 25.1644 12.8796 27.11 8.40148 27.11H6.65687Z" fill="white"/>
<path d="M26.8526 27.11V18.4754H20.9514V27.11H16.3849V5.78073H20.9514V14.4234H26.8526V5.78073H31.4191V27.11H26.8526Z" fill="white"/>
<path d="M50.4812 27.11V5.78073H65.5155V9.83274H55.0478V14.4234H65.5155V18.4754H55.0478V23.0661H65.5155V27.11H50.4812Z" fill="white"/>
<path d="M40.9381 5.85309C35.4953 5.85309 32.7939 8.12028 32.7939 12.6627V20.2281C32.7939 24.7866 35.4953 27.0538 40.9381 27.0538C46.381 27.0538 49.0823 24.7866 49.0823 20.2281V12.6627C49.0823 8.12832 46.373 5.85309 40.9381 5.85309ZM43.9048 20.22C43.9048 21.7476 42.9239 22.5113 40.9381 22.5113C38.9523 22.5113 37.9715 21.7556 37.9715 20.22V12.6547C37.9715 11.1432 38.9604 10.3875 40.9381 10.3875C42.9159 10.3875 43.9048 11.1432 43.9048 12.6547V20.22Z" fill="white"/>
<path d="M91.9098 5.78073V27.11H86.7805V16.9479L83.5887 24.055H79.8744L76.7469 16.9479V27.11H71.6096V5.78073H77.1972L81.7878 15.758L86.3303 5.78073H91.9098Z" fill="white"/>
<path d="M104.596 5.78073H97.8351L92.762 27.102H97.8351L98.5586 24.063H103.873L104.596 27.102H109.669L104.596 5.78073ZM99.644 19.4884L101.204 12.9039L102.796 19.4884H99.644Z" fill="white"/>
<path d="M125.733 11.8748C125.733 7.82281 123.482 5.78073 118.971 5.78073H110.514V27.102H115.587V19.4884H118.979C120.097 19.4884 120.676 20.003 120.676 21.016V27.102H125.749V21.016C125.749 19.4241 125.419 18.1699 124.736 17.2051C125.419 16.2404 125.749 14.9781 125.749 13.4104V11.8829L125.733 11.8748ZM120.668 13.4024C120.668 14.3993 120.089 14.9138 118.971 14.9138H115.579V10.3553H118.971C120.089 10.3553 120.668 10.8377 120.668 11.8668V13.4024Z" fill="white"/>
<path d="M137.865 16.4414L143.509 27.11H137.881L135.043 21.7476L133.427 18.7246H132.494V27.11H127.421V5.78073H132.494V14.1661H133.427L135.043 11.1432L137.881 5.78073H143.509L137.865 16.4414Z" fill="white"/>
<path d="M144.337 5.78073H159.564V10.3553H149.41V14.1661H159.323V18.7246H149.41V22.5355H159.564V27.11H144.337V5.78073Z" fill="white"/>
<path d="M176.487 11.8748C176.487 7.82281 174.236 5.78073 169.71 5.78073H161.252V27.102H166.325V19.4884H169.718C170.852 19.4884 171.43 20.003 171.43 21.016V27.102H176.503V21.016C176.503 19.4241 176.158 18.1699 175.474 17.2051C176.158 16.2404 176.503 14.9781 176.503 13.4104V11.8829L176.487 11.8748ZM171.414 13.4024C171.414 14.3993 170.836 14.9138 169.702 14.9138H166.309V10.3553H169.702C170.836 10.3553 171.414 10.8377 171.414 11.8668V13.4024Z" fill="white"/>
<path d="M207.762 2.46819C207.762 2.46819 207.602 2.46819 207.393 2.46819C204.514 0.820049 201.435 0 198.139 0C192.664 0.594938 189.914 1.47126 189.914 2.6129H190.348L193.379 1.11752C186.642 6.68099 182.751 11.2797 181.698 14.9297H181.264V14.5599C182.606 11.545 184.335 8.80347 186.457 6.34332V5.97349C181.842 11.1269 179.535 14.7368 179.535 16.7949V17.5426L179.969 20.1555L179.535 20.5334L181.272 22.7684C183.064 27.4958 187.398 29.8594 194.248 29.8594H194.682L196.845 29.4816C200.864 27.4234 203.887 25.1803 205.929 22.7604C205.929 22.7604 211.195 17.0844 210.994 10.8295C210.818 5.21776 207.77 2.46819 207.77 2.46819H207.762ZM205.712 13.7077L204.305 13.579C203.582 13.9167 203.091 14.0936 202.81 14.0936L202.931 14.3187L204.466 14.0936L204.756 14.2463V14.4715L202.175 14.8734L202.239 15.4684C200.671 15.7256 199.216 15.8221 199.216 16.0553C199.216 16.2241 199.313 16.1517 199.578 16.1517L199.642 16.7145C198.67 16.8432 198.115 17.1245 198.115 18.2501L198.211 18.4752C198.067 19.1345 197.898 23.4438 197.737 23.4438V23.5724L197.608 24.6819L197.737 24.9311C197.689 25.309 197.448 25.6386 197.005 25.92C197.005 26.4988 196.925 26.7802 196.756 26.7802L196.627 26.523C196.354 26.6918 196.113 26.7802 195.896 26.7802C195.791 26.3782 195.671 26.1772 195.518 26.1772V26.6516C195.204 26.4024 195.044 26.1129 195.044 25.7913H194.794V25.9119L194.923 26.1692L194.666 26.2657C194.666 25.8396 194.497 25.4376 194.159 25.0597H194.063V25.2848C193.942 25.2848 193.814 25.1642 193.685 24.9311L193.436 25.0597H193.307C193.138 24.2558 192.897 23.6769 192.575 23.3071C192.575 22.9051 192.447 18.7245 192.198 18.7245H192.101C192.101 18.9817 192.013 19.1023 191.844 19.1023L191.723 18.8531C191.169 19.1666 190.099 19.4159 188.515 19.5847L188.387 19.3274C188.467 19.3274 188.515 19.2953 188.515 19.231H187.527C187.527 18.829 187.036 18.5717 186.063 18.4672C185.444 18.1295 184.986 17.6391 184.697 17.004H184.568V16.6261C184.672 16.6261 184.841 16.4251 185.082 16.0231H185.308L185.557 16.1517C185.557 15.999 186.216 15.79 187.527 15.5086C187.888 15.2111 189.408 14.7689 192.109 14.174C192.68 14.174 192.969 9.39036 192.969 7.4126C193.114 6.09409 193.404 5.14541 193.83 4.55047C195.269 4.82382 196.386 5.23384 197.174 5.78858C198.059 5.95741 198.509 6.36744 198.509 7.02669C198.822 7.02669 199.039 11.3119 199.144 12.2847C199.063 12.2847 199.023 12.3329 199.023 12.4133H199.144C200.229 12.1801 204.249 11.6174 204.49 11.6174V11.746C204.49 11.8907 202.923 12.2043 202.923 12.2043L202.955 12.357C206.717 11.5289 205.833 12.156 206.05 12.1641L206.074 12.5419C205.415 12.7108 205.664 12.8394 205.495 12.8394L204.611 12.96C204.273 12.96 204.217 13.2173 204.362 13.2173L205.897 13.0886H206.018C206.018 13.169 206.058 13.2896 206.146 13.4424C205.897 13.5228 205.769 13.6032 205.769 13.6916L205.712 13.7077Z" fill="white"/>
</svg>
