<svg width="99" height="17" viewBox="0 0 99 17" fill="none" xmlns="http://www.w3.org/2000/svg">
<path d="M66.5063 5.25732H64.7891V7.5098H66.5063C67.0795 7.5098 67.3661 7.25902 67.3661 6.75973V6.00967C67.3661 5.5081 67.0795 5.25959 66.5063 5.25959V5.25732Z" fill="#E60012"/>
<path d="M56.6855 9.76228H58.283L57.4843 6.51123L56.6855 9.76228Z" fill="#E60012"/>
<path d="M92.2758 5.25732H90.5586V7.5098H92.2758C92.849 7.5098 93.1356 7.25902 93.1356 6.75973V6.00967C93.1356 5.5081 92.849 5.25959 92.2758 5.25959V5.25732Z" fill="#E60012"/>
<path d="M39.1523 0V16.4423H98.6547V0H39.1523ZM52.7611 13.5149H50.1582V8.50838L48.535 12.0148H46.6439L45.0535 8.50838V13.5149H42.4506V3.00485H45.286L47.6141 7.92246L49.9257 3.00485H52.7611V13.5149ZM59.2026 13.5149L58.8337 12.0125H56.1369L55.7681 13.5149H53.191L55.7681 3.00485H59.2049L61.782 13.5149H59.2049H59.2026ZM69.9407 6.75975C69.9407 7.53489 69.7692 8.16185 69.4262 8.63605C69.7692 9.11254 69.9407 9.73723 69.9407 10.5124V13.5149H67.3636V10.5124C67.3636 10.0108 67.077 9.7623 66.5038 9.7623H64.7866V13.5149H62.2095V3.00485H66.5038C68.7943 3.00485 69.9407 4.0057 69.9407 6.0074V6.75746V6.75975ZM78.9709 13.5149H76.1096L74.6672 10.8726L73.8521 9.38613H73.3799V13.5149H70.8028V3.00485H73.3799V7.13365H73.8521L74.6672 5.64718L76.1096 3.00485H78.9709L76.1026 8.25989L78.9709 13.5149ZM87.1226 5.25734H81.9685V7.13365H86.9981V9.38613H81.9685V11.2624H87.1226V13.5149H79.3914V3.00485H87.1226V5.25734ZM95.7135 6.75975C95.7135 7.53489 95.542 8.16185 95.199 8.63605C95.542 9.11254 95.7135 9.73723 95.7135 10.5124V13.5149H93.1365V10.5124C93.1365 10.0108 92.8498 9.7623 92.2766 9.7623H90.5594V13.5149H87.9824V3.00485H92.2766C94.5671 3.00485 95.7135 4.0057 95.7135 6.0074V6.75746V6.75975Z" fill="#E60012"/>
<path d="M3.55901 13.98C1.16285 13.98 0 12.9677 0 10.8862V10.6514H2.44785V10.8862C2.44785 11.5246 2.84251 11.8757 3.55901 11.8757H4.49398C5.21048 11.8757 5.60514 11.5246 5.60514 10.8862V10.4781C5.60514 9.83976 5.21048 9.48867 4.49398 9.48867H3.55901C1.16285 9.48867 0 8.47642 0 6.39492V5.98682C0 3.90532 1.1652 2.89307 3.55901 2.89307H4.49398C6.89014 2.89307 8.05299 3.90532 8.05299 5.98682V6.22165H5.60514V5.98682C5.60514 5.34846 5.21048 4.99737 4.49398 4.99737H3.55901C2.84251 4.99737 2.44785 5.34846 2.44785 5.98682V6.39492C2.44785 7.03328 2.84251 7.38436 3.55901 7.38436H4.49398C6.89014 7.38436 8.05299 8.39662 8.05299 10.4781V10.8862C8.05299 12.9677 6.88779 13.98 4.49398 13.98H3.55901Z" fill="#E60012"/>
<path d="M14.5762 13.9801V9.48883H11.4166V13.9801H8.96875V2.89551H11.4166V7.38452H14.5762V2.89551H17.0217V13.9801H14.5762Z" fill="#E60012"/>
<path d="M28.0312 13.9801V2.89551H36.0842V4.99981H30.4768V7.38452H36.0842V9.48883H30.4768V11.8758H36.0842V13.9801H28.0312Z" fill="#E60012"/>
<path d="M18.1504 6.47028C18.1504 4.11064 19.6045 2.92969 22.5152 2.92969C25.4258 2.92969 26.8799 4.11064 26.8799 6.47028V10.403C26.8799 12.7627 25.4258 13.9436 22.5152 13.9436C19.6045 13.9436 18.1504 12.7627 18.1504 10.403V6.47028ZM20.9295 6.47028V10.403C20.9295 11.1896 21.458 11.584 22.5175 11.584C23.577 11.584 24.1056 11.1896 24.1056 10.403V6.47028C24.1056 5.68373 23.577 5.28932 22.5175 5.28932C21.458 5.28932 20.9295 5.68373 20.9295 6.47028Z" fill="#E60012"/>
</svg>
